:SAMPLES-PER-SECOND 30
:FULLY-SPECIFIED
:DEGREES
298
root  -1.77256 37.6075 -15.375 145.532 -87.1813 -144.138
RightUpLeg  -20.5953 -19.2179 -16.6091
RightLeg  36.1913 -13.4352 -10.5717
RightFoot  -18.9881 0.560451 10.3103
RightToes  -1.33073e-015 0 -3.6325e-017
Spine  24.6386 0.521552 1.55783
Spine1  -20.954 0.762347 0.713675
HEad  -15.3755 7.24627 -4.99405
LeftShoulder1  -0.0188253 4.73283 7.67737
LeftArm  -60.4167 -10.377 -15.0008
LeftForeArm  2.57143 -75.8981 -59.66
LeftHand  0.3414 6.37576 37.1682
RightShoulder  -0.051142 -4.75195 -4.50324
RightArm  -71.6544 -0.0807951 13.358
RightForeArm  -12.2335 73.8093 48.9937
RightHand  -1.91199 1.52643 -31.5272
LeftUpLeg  -22.876 25.148 13.4061
LeftLeg  39.67 8.51173 7.83284
LeftFoot  -3.40714 1.27167 -17.9833
LeftToes  -4.0021e-011 8.38769e-011 -3.99229e-011
299
root  -1.19433 36.0668 -15.8919 150.147 -86.2792 -148.941
RightUpLeg  -24.6504 -22.6992 -16.9105
RightLeg  41.2494 -8.63119 -8.27255
RightFoot  -18.8481 0.76499 13.6869
RightToes  -1.33073e-015 0 -3.6325e-017
Spine  27.8065 0.878106 1.88234
Spine1  -21.27 1.22401 0.86292
HEad  -19.1456 6.47067 -5.80384
LeftShoulder1  0.150545 6.70848 15.1433
LeftArm  -66.9229 -11.0729 -11.8846
LeftForeArm  -21.6709 -71.225 -40.5412
LeftHand  0.898091 7.83661 40.0547
RightShoulder  0.0092413 -6.28496 -10.0383
RightArm  -76.7092 2.64047 8.2042
RightForeArm  -32.278 67.3974 32.4892
RightHand  -2.12868 1.76114 -33.8333
LeftUpLeg  -27.8259 27.2507 15.1855
LeftLeg  48.5636 5.0206 6.52284
LeftFoot  -7.59453 0.678128 -19.0081
LeftToes  -4.0021e-011 8.38769e-011 -3.99229e-011
300
root  -0.624008 34.4787 -16.4283 159.004 -85.4611 -157.976
RightUpLeg  -29.9845 -27.1283 -17.0752
RightLeg  48.2527 -4.12582 -5.24926
RightFoot  -15.9077 0.571469 17.0468
RightToes  -1.33073e-015 0 -3.6325e-017
Spine  30.1925 1.26618 1.78028
Spine1  -19.6945 1.66823 0.303473
HEad  -24.3169 5.86297 -6.8114
LeftShoulder1  0.409093 8.21315 19.6278
LeftArm  -73.561 -10.3883 -6.61567
LeftForeArm  -37.5699 -63.9257 -26.9855
LeftHand  1.35162 8.94724 41.5178
RightShoulder  0.102623 -7.02589 -12.9165
RightArm  -81.8819 3.7593 0.0325305
RightForeArm  -45.4417 57.8799 21.0273
RightHand  -2.06621 1.00047 -36.6267
LeftUpLeg  -32.077 30.0523 16.2018
LeftLeg  55.7852 3.23006 5.65642
LeftFoot  -11.2346 0.087635 -17.8736
LeftToes  -4.0021e-011 8.38769e-011 -3.99229e-011
301
root  -0.304781 33.3532 -17.0458 169.928 -84.8982 -168.899
RightUpLeg  -34.614 -29.9985 -17.0723
RightLeg  54.299 -1.06232 -2.0531
RightFoot  -13.1683 0.229856 19.5551
RightToes  -1.33073e-015 0 -3.6325e-017
Spine  30.902 1.53888 0.988462
Spine1  -16.7559 1.88184 -0.664811
HEad  -29.1697 5.75788 -8.0747
LeftShoulder1  0.557737 9.41785 20.4244
LeftArm  -78.5426 -8.98675 -2.65185
LeftForeArm  -41.5192 -59.9311 -22.5263
LeftHand  1.39284 9.09861 41.0434
RightShoulder  0.107151 -7.18626 -12.8759
RightArm  -85.1388 3.3947 -6.28395
RightForeArm  -50.6839 52.6367 17.2989
RightHand  -1.61173 -0.746564 -39.0511
LeftUpLeg  -34.5353 32.1153 16.6338
LeftLeg  59.8203 2.61867 5.47299
LeftFoot  -13.5322 -0.249041 -16.7595
LeftToes  -4.0021e-011 8.38769e-011 -3.99229e-011
302
root  -0.343644 33.1842 -17.7423 176.916 -84.3928 -176.219
RightUpLeg  -35.6739 -29.9443 -16.6564
RightLeg  56.2569 -0.469938 -1.2098
RightFoot  -12.11 0.0479966 19.2896
RightToes  -1.33073e-015 0 -3.6325e-017
Spine  30.0406 1.68695 0.264085
Spine1  -14.163 1.90674 -0.878651
HEad  -30.9118 6.21895 -9.04068
LeftShoulder1  0.49523 9.69672 18.7593
LeftArm  -79.1505 -6.81669 -5.63609
LeftForeArm  -31.2246 -65.8503 -30.3762
LeftHand  1.08026 8.3211 40.2948
RightShoulder  0.0383038 -7.10282 -10.8103
RightArm  -84.5128 2.07437 -3.77853
RightForeArm  -44.8871 59.2449 22.8737
RightHand  -1.38644 -1.45204 -39.6112
LeftUpLeg  -33.5589 31.8066 17.7985
LeftLeg  59.5878 2.7141 5.61268
LeftFoot  -12.8104 -0.149758 -18.7856
LeftToes  -4.0021e-011 8.38769e-011 -3.99229e-011
303
root  -0.624063 34.0608 -18.4876 -178.924 -84.0396 178.895
RightUpLeg  -32.5722 -27.9293 -16.0134
RightLeg  52.9291 -1.94878 -3.10813
RightFoot  -11.0618 -0.114416 17.0083
RightToes  -1.33073e-015 0 -3.6325e-017
Spine  28.7772 1.76504 -0.427349
Spine1  -13.6541 1.75852 -0.189106
HEad  -27.9769 7.49669 -8.99385
LeftShoulder1  0.205828 8.486 14.2283
LeftArm  -73.7098 -4.53806 -13.9898
LeftForeArm  4.44679 -76.047 -61.4887
LeftHand  0.716006 7.35373 39.7068
RightShoulder  -0.0664811 -6.06359 -6.33155
RightArm  -79.414 0.394882 6.25784
RightForeArm  -17.5123 72.3479 44.3585
RightHand  -1.78409 0.0372376 -37.2067
LeftUpLeg  -29.4463 28.6652 19.1874
LeftLeg  54.7074 4.89634 7.7962
LeftFoot  -7.4359 0.800239 -21.8302
LeftToes  -4.0021e-011 8.38769e-011 -3.99229e-011
